<svg xmlns="http://www.w3.org/2000/svg" viewBox="0 0 1790.79 486"><path d="M511.22,512.07C501.9,393.6,407.16,298.86,288.69,289.53,145.74,278.28,26.25,390.81,26,531.32h0V729a45.7,45.7,0,0,0,45.7,45.71H269.43C410,774.5,522.48,655,511.22,512.07Z" transform="translate(-26 -288.75)" fill="#81d4fa"/><circle cx="242.48" cy="243.4" r="39.42" fill="#29b6f6"/><circle cx="371.68" cy="243.4" r="39.42" fill="#29b6f6"/><circle cx="113.52" cy="243.4" r="39.42" fill="#29b6f6"/><path d="M688.38,575.45q0-9.87-7-15.17t-25.1-11.15q-18.12-5.86-28.7-11.56-28.83-15.59-28.82-42a40.87,40.87,0,0,1,7.72-24.46q7.74-10.74,22.2-16.79a83.52,83.52,0,0,1,32.48-6q18.13,0,32.31,6.56a51.48,51.48,0,0,1,22,18.54,48.49,48.49,0,0,1,7.85,27.19H688.5q0-11.62-7.32-18.07t-20.57-6.45q-12.78,0-19.87,5.4a17,17,0,0,0-7.09,14.24q0,8.25,8.31,13.83T666.42,520q29.75,8.94,43.35,22.19t13.6,33q0,22-16.62,34.46T662,622.17A86.53,86.53,0,0,1,626.44,615q-16-7.14-24.46-19.58t-8.42-28.82h35q0,28,33.47,28,12.42,0,19.4-5.06T688.38,575.45Z" transform="translate(-26 -288.75)" fill="#383838"/><path d="M739.52,555.81q0-18.7,7.2-33.35a52.75,52.75,0,0,1,20.75-22.66q13.53-8,31.43-8,25.46,0,41.55,15.57t17.95,42.3l.23,8.6q0,28.93-16.15,46.43t-43.35,17.49q-27.2,0-43.4-17.43t-16.21-47.42Zm33.58,2.38q0,17.92,6.74,27.41t19.29,9.49q12.21,0,19.06-9.37t6.86-30q0-17.58-6.86-27.23t-19.29-9.66q-12.31,0-19.06,9.6T773.1,558.19Z" transform="translate(-26 -288.75)" fill="#383838"/><path d="M931.61,595.09q9.3,0,15.11-5.11a17.91,17.91,0,0,0,6-13.6h31.5a43.13,43.13,0,0,1-7,23.42,46,46,0,0,1-18.77,16.5,58.78,58.78,0,0,1-26.32,5.87q-27,0-42.54-17.14t-15.57-47.36v-2.21q0-29.06,15.46-46.37T932,491.78q23.6,0,37.83,13.42t14.47,35.74h-31.5q-.22-9.83-6-16t-15.34-6.13q-11.73,0-17.72,8.55t-6,27.76v3.49q0,19.44,5.93,27.93T931.61,595.09Z" transform="translate(-26 -288.75)" fill="#383838"/><path d="M1049.1,569.41,1037,581.49v38.35h-33.59V441.34H1037v98.9l6.51-8.37,32.19-37.77H1116l-45.44,52.41L1120,619.84h-38.58Z" transform="translate(-26 -288.75)" fill="#383838"/><path d="M1186.12,622.17q-27.66,0-45-17T1123.71,560v-3.25q0-18.94,7.32-33.88a53.79,53.79,0,0,1,20.75-23q13.41-8.07,30.62-8.07,25.8,0,40.61,16.27t14.82,46.13V567.9h-80.07q1.62,12.32,9.82,19.75t20.74,7.44q19.41,0,30.34-14.06l16.5,18.48a50.43,50.43,0,0,1-20.46,16.67A67.07,67.07,0,0,1,1186.12,622.17Zm-3.84-103.31q-10,0-16.21,6.77t-8,19.37h46.72v-2.68q-.24-11.21-6-17.34T1182.28,518.86Z" transform="translate(-26 -288.75)" fill="#383838"/><path d="M1297.1,463.19V494.1h21.5v24.64h-21.5v62.75q0,7,2.67,10t10.23,3a53.82,53.82,0,0,0,9.88-.81v25.45a69.34,69.34,0,0,1-20.34,3q-35.32,0-36-35.68V518.74h-18.36V494.1h18.36V463.19Z" transform="translate(-26 -288.75)" fill="#383838"/><path d="M1472.34,563.48q-2,27.32-20.16,43t-47.93,15.69q-32.55,0-51.2-21.91t-18.65-60.14V529.78q0-24.4,8.6-43t24.58-28.53q16-9.93,37.13-9.93,29.28,0,47.18,15.68t20.69,44.05h-34.87q-1.28-16.4-9.12-23.77t-23.88-7.38q-17.43,0-26.09,12.5t-8.89,38.75v12.79q0,27.42,8.31,40.09t26.21,12.67q16.14,0,24.11-7.38t9.12-22.84Z" transform="translate(-26 -288.75)" fill="#383838"/><path d="M1525.8,507.82q13.37-16.05,33.59-16,40.9,0,41.48,47.53v80.53h-33.58v-79.6q0-10.82-4.65-16t-15.46-5.17q-14.76,0-21.38,11.39v89.36h-33.58V441.34h33.58Z" transform="translate(-26 -288.75)" fill="#383838"/><path d="M1699.07,619.84a37.36,37.36,0,0,1-3.37-11.27q-12.2,13.6-31.72,13.6-18.48,0-30.62-10.69a34.39,34.39,0,0,1-12.15-27q0-20,14.82-30.67T1678.85,543h15.46v-7.21q0-8.72-4.48-13.94t-14.12-5.23q-8.48,0-13.3,4.06t-4.83,11.16H1624a33.77,33.77,0,0,1,6.74-20.22q6.73-9.3,19.06-14.58a69.36,69.36,0,0,1,27.66-5.29q23.24,0,36.89,11.68T1728,536.29v54.5q.1,17.9,5,27.08v2Zm-27.77-23.36a28.9,28.9,0,0,0,13.71-3.31,21.82,21.82,0,0,0,9.3-8.89V562.67h-12.55q-25.23,0-26.85,17.43l-.11,2a13.46,13.46,0,0,0,4.41,10.35C1662.16,595.13,1666.18,596.48,1671.3,596.48Z" transform="translate(-26 -288.75)" fill="#383838"/><path d="M1794,463.19V494.1h21.5v24.64H1794v62.75q0,7,2.67,10t10.23,3a53.71,53.71,0,0,0,9.87-.81v25.45a69.22,69.22,0,0,1-20.33,3q-35.34,0-36-35.68V518.74h-18.36V494.1h18.36V463.19Z" transform="translate(-26 -288.75)" fill="#383838"/></svg>